<?xml version="1.0" standalone="no"?>
<svg xmlns:xlink="http://www.w3.org/1999/xlink" id="wave" style="transform:rotate(0deg); transition: 0.3s" viewBox="0 0 1440 130" version="1.1" xmlns="http://www.w3.org/2000/svg"><defs><linearGradient id="sw-gradient-0" x1="0" x2="0" y1="1" y2="0"><stop stop-color="rgba(212, 89, 41, 1)" offset="0%"/><stop stop-color="rgba(248, 129, 82, 1)" offset="100%"/></linearGradient></defs><path style="transform:translate(0, 0px); opacity:1" fill="url(#sw-gradient-0)" d="M0,91L20,93.2C40,95,80,100,120,97.5C160,95,200,87,240,73.7C280,61,320,43,360,34.7C400,26,440,26,480,26C520,26,560,26,600,36.8C640,48,680,69,720,67.2C760,65,800,39,840,39C880,39,920,65,960,71.5C1000,78,1040,65,1080,65C1120,65,1160,78,1200,75.8C1240,74,1280,56,1320,45.5C1360,35,1400,30,1440,34.7C1480,39,1520,52,1560,54.2C1600,56,1640,48,1680,45.5C1720,43,1760,48,1800,49.8C1840,52,1880,52,1920,60.7C1960,69,2000,87,2040,91C2080,95,2120,87,2160,75.8C2200,65,2240,52,2280,49.8C2320,48,2360,56,2400,67.2C2440,78,2480,91,2520,80.2C2560,69,2600,35,2640,19.5C2680,4,2720,9,2760,8.7C2800,9,2840,4,2860,2.2L2880,0L2880,130L2860,130C2840,130,2800,130,2760,130C2720,130,2680,130,2640,130C2600,130,2560,130,2520,130C2480,130,2440,130,2400,130C2360,130,2320,130,2280,130C2240,130,2200,130,2160,130C2120,130,2080,130,2040,130C2000,130,1960,130,1920,130C1880,130,1840,130,1800,130C1760,130,1720,130,1680,130C1640,130,1600,130,1560,130C1520,130,1480,130,1440,130C1400,130,1360,130,1320,130C1280,130,1240,130,1200,130C1160,130,1120,130,1080,130C1040,130,1000,130,960,130C920,130,880,130,840,130C800,130,760,130,720,130C680,130,640,130,600,130C560,130,520,130,480,130C440,130,400,130,360,130C320,130,280,130,240,130C200,130,160,130,120,130C80,130,40,130,20,130L0,130Z"/><defs><linearGradient id="sw-gradient-1" x1="0" x2="0" y1="1" y2="0"><stop stop-color="rgba(248, 129, 82, 1)" offset="0%"/><stop stop-color="rgba(212, 89, 41, 1)" offset="100%"/></linearGradient></defs><path style="transform:translate(0, 50px); opacity:0.9" fill="url(#sw-gradient-1)" d="M0,91L20,82.3C40,74,80,56,120,43.3C160,30,200,22,240,21.7C280,22,320,30,360,41.2C400,52,440,65,480,73.7C520,82,560,87,600,78C640,69,680,48,720,41.2C760,35,800,43,840,47.7C880,52,920,52,960,54.2C1000,56,1040,61,1080,54.2C1120,48,1160,30,1200,19.5C1240,9,1280,4,1320,8.7C1360,13,1400,26,1440,32.5C1480,39,1520,39,1560,36.8C1600,35,1640,30,1680,32.5C1720,35,1760,43,1800,56.3C1840,69,1880,87,1920,93.2C1960,100,2000,95,2040,95.3C2080,95,2120,100,2160,104C2200,108,2240,113,2280,114.8C2320,117,2360,117,2400,101.8C2440,87,2480,56,2520,52C2560,48,2600,69,2640,82.3C2680,95,2720,100,2760,101.8C2800,104,2840,104,2860,104L2880,104L2880,130L2860,130C2840,130,2800,130,2760,130C2720,130,2680,130,2640,130C2600,130,2560,130,2520,130C2480,130,2440,130,2400,130C2360,130,2320,130,2280,130C2240,130,2200,130,2160,130C2120,130,2080,130,2040,130C2000,130,1960,130,1920,130C1880,130,1840,130,1800,130C1760,130,1720,130,1680,130C1640,130,1600,130,1560,130C1520,130,1480,130,1440,130C1400,130,1360,130,1320,130C1280,130,1240,130,1200,130C1160,130,1120,130,1080,130C1040,130,1000,130,960,130C920,130,880,130,840,130C800,130,760,130,720,130C680,130,640,130,600,130C560,130,520,130,480,130C440,130,400,130,360,130C320,130,280,130,240,130C200,130,160,130,120,130C80,130,40,130,20,130L0,130Z"/><defs><linearGradient id="sw-gradient-2" x1="0" x2="0" y1="1" y2="0"><stop stop-color="rgba(248, 129, 82, 1)" offset="0%"/><stop stop-color="rgba(248, 129, 82, 1)" offset="100%"/></linearGradient></defs><path style="transform:translate(0, 100px); opacity:0.8" fill="url(#sw-gradient-2)" d="M0,52L20,56.3C40,61,80,69,120,80.2C160,91,200,104,240,106.2C280,108,320,100,360,86.7C400,74,440,56,480,58.5C520,61,560,82,600,75.8C640,69,680,35,720,28.2C760,22,800,43,840,45.5C880,48,920,30,960,30.3C1000,30,1040,48,1080,54.2C1120,61,1160,56,1200,65C1240,74,1280,95,1320,86.7C1360,78,1400,39,1440,19.5C1480,0,1520,0,1560,15.2C1600,30,1640,61,1680,69.3C1720,78,1760,65,1800,58.5C1840,52,1880,52,1920,58.5C1960,65,2000,78,2040,78C2080,78,2120,65,2160,49.8C2200,35,2240,17,2280,21.7C2320,26,2360,52,2400,71.5C2440,91,2480,104,2520,108.3C2560,113,2600,108,2640,101.8C2680,95,2720,87,2760,88.8C2800,91,2840,104,2860,110.5L2880,117L2880,130L2860,130C2840,130,2800,130,2760,130C2720,130,2680,130,2640,130C2600,130,2560,130,2520,130C2480,130,2440,130,2400,130C2360,130,2320,130,2280,130C2240,130,2200,130,2160,130C2120,130,2080,130,2040,130C2000,130,1960,130,1920,130C1880,130,1840,130,1800,130C1760,130,1720,130,1680,130C1640,130,1600,130,1560,130C1520,130,1480,130,1440,130C1400,130,1360,130,1320,130C1280,130,1240,130,1200,130C1160,130,1120,130,1080,130C1040,130,1000,130,960,130C920,130,880,130,840,130C800,130,760,130,720,130C680,130,640,130,600,130C560,130,520,130,480,130C440,130,400,130,360,130C320,130,280,130,240,130C200,130,160,130,120,130C80,130,40,130,20,130L0,130Z"/></svg>